<svg xmlns="http://www.w3.org/2000/svg" version="1.1" xmlns:xlink="http://www.w3.org/1999/xlink" xmlns:svgjs="http://svgjs.dev/svgjs" width="1000" height="750" viewBox="0 0 1000 750"><rect width="1000" height="750" fill="#e65728"></rect><g transform="matrix(0.6382513661202186,0,0,0.6382513661202186,181.57888013625728,82.17370212765968)"><svg viewBox="0 0 154 141" data-background-color="#e65728" preserveAspectRatio="xMidYMid meet" height="915" width="1000" xmlns="http://www.w3.org/2000/svg" xmlns:xlink="http://www.w3.org/1999/xlink"><g id="tight-bounds" transform="matrix(1,0,0,1,-0.17000000000001592,0.19949999999997203)"><svg viewBox="0 0 154.33973403973516 140.60052000000002" height="140.60052000000002" width="154.33973403973516"><g><svg viewBox="0 0 154.33973403973516 140.60052000000002" height="140.60052000000002" width="154.33973403973516"><g><svg viewBox="0 0 154.33973403973516 140.60052000000002" height="140.60052000000002" width="154.33973403973516"><g><path d="M0 140.601v-140.601h154.34v140.601z" fill="#ffffff" stroke="transparent" stroke-width="0" rx="0%" data-fill-palette-color="tertiary"></path><path d="M3.283 137.317v-134.034h147.773v134.034z" fill="#e65728" stroke="transparent" stroke-width="0" rx="0%" data-fill-palette-color="quaternary"></path><path d="M9.85 130.751v-120.901h134.64v120.901z" fill="#ffffff" stroke="transparent" stroke-width="0" data-fill-palette-color="tertiary"></path></g><g transform="matrix(1,0,0,1,19.699740000000006,19.69974)" id="textblocktransform"><svg viewBox="0 0 114.94025403973515 101.20104000000003" height="101.20104000000003" width="114.94025403973515" id="textblock"><g><svg viewBox="0 0 114.94025403973515 101.20104000000003" height="101.20104000000003" width="114.94025403973515"><g transform="matrix(1,0,0,1,0,0)"><svg width="114.94025403973515" viewBox="0.20000000298023224 -37.900001525878906 51.45000076293945 45.30000305175781" height="101.20104000000003" data-palette-color="#e65728"><path d="M3.95 7.4Q1.95 7.4 0.2 7.05L0.2 7.05 0.2 1.1Q1.45 1.35 2.8 1.35L2.8 1.35Q3.95 1.35 4.53 0.95 5.1 0.55 5.38-0.5 5.65-1.55 5.65-3.65L5.65-3.65 5.65-37.9 12.6-37.9 12.6-3.35Q12.6 1 11.85 3.28 11.1 5.55 9.28 6.48 7.45 7.4 3.95 7.4L3.95 7.4ZM42.9 0L31-15.3 28.85-12.95 28.85 0 21.9 0 21.9-37.9 28.85-37.9 28.85-22.65 42.75-37.9 51.4-37.9 35.5-20.35 51.65 0 42.9 0Z" opacity="1" transform="matrix(1,0,0,1,0,0)" fill="#e65728" class="undefined-text-0" data-fill-palette-color="quaternary" id="text-0"></path></svg></g></svg></g></svg></g></svg></g><g></g></svg></g><defs></defs></svg><rect width="300" height="300" fill="none" stroke="none" visibility="hidden"></rect></g></svg></g></svg>